<svg xmlns="http://www.w3.org/2000/svg" width="256" height="256" viewBox="0 0 100 100"><rect width="100" height="100" rx="20" fill="#000000"></rect><path d="M28.77 83.49L20.78 83.49Q20.29 83.40 20.07 83.00Q19.85 82.61 19.85 82.12L19.85 82.12Q19.85 81.73 20.03 81.42L20.03 81.42L25.43 71.09Q25.48 70.92 25.59 69.73Q25.70 68.54 25.83 66.77Q25.96 64.99 26.12 62.79Q26.27 60.59 26.45 58.44Q26.62 56.28 26.77 54.33Q26.93 52.37 27.06 51.05L27.06 51.05Q27.10 50.53 27.19 49.45Q27.28 48.37 27.37 46.97Q27.46 45.56 27.59 43.94Q27.72 42.31 27.85 40.68L27.85 40.68L28.47 31.50Q27.28 31.76 26.01 32.05Q24.73 32.33 23.52 32.55Q22.31 32.77 21.24 32.93Q20.16 33.08 19.37 33.08L19.37 33.08Q18.89 33.08 18.65 32.64Q18.40 32.20 18.40 31.72L18.40 31.72Q18.40 31.15 18.67 30.88L18.67 30.88L29.83 20.47Q31.19 19.24 32.53 18.47Q33.87 17.70 35.76 17.26Q37.65 16.82 40.40 16.67Q43.14 16.51 47.36 16.51L47.36 16.51Q54.57 16.51 60.15 18.01Q65.73 19.50 69.60 22.27L69.60 22.27Q72.46 24.25 74.70 26.40Q76.94 28.55 78.48 31.17Q80.01 33.78 80.81 36.93Q81.60 40.07 81.60 44.02L81.60 44.02Q81.60 51.54 79.36 57.38Q77.11 63.23 73.25 67.60Q69.38 71.97 64.22 75.00Q59.05 78.04 53.19 79.93Q47.32 81.82 41.06 82.65Q34.79 83.49 28.77 83.49L28.77 83.49ZM46.31 30.58L46.31 30.58L45.78 35.89Q45.52 38.66 45.23 41.80Q44.95 44.95 44.68 48.18Q44.42 51.41 44.16 54.55Q43.89 57.69 43.67 60.42Q43.45 63.14 43.28 65.29Q43.10 67.45 42.97 68.72L42.97 68.72L42.84 70.04Q48.15 70.04 51.82 68.33Q55.49 66.61 57.78 63.60Q60.06 60.59 61.10 56.55Q62.13 52.50 62.13 47.85L62.13 47.85Q62.13 44.51 61.21 41.41Q60.28 38.31 58.53 35.50L58.53 35.50Q56.77 32.69 54.22 31.28Q51.67 29.87 48.46 29.87L48.46 29.87Q47.93 29.87 47.32 30.11Q46.70 30.36 46.31 30.58Z" fill="#00bffd"></path></svg>